<!DOCTYPE svg PUBLIC "-//W3C//DTD SVG 1.1//EN" "http://www.w3.org/Graphics/SVG/1.1/DTD/svg11.dtd">
<!-- Uploaded to: SVG Repo, www.svgrepo.com, Transformed by: SVG Repo Mixer Tools -->
<svg fill="#ae00ff" width="256px" height="256px" viewBox="0 0 24.00 24.00" xmlns="http://www.w3.org/2000/svg" stroke="#ae00ff" stroke-width="0.072">
<g id="SVGRepo_bgCarrier" stroke-width="0">
<path transform="translate(0, 0), scale(0.75)" d="M16,31.285476556047797C19.485563203203977,31.446829384282022,20.101782182451384,26.012035784873746,21.88390537664577,23.012165371101986C22.94298701475691,21.229399913422867,23.532667091612335,19.405873981565293,24.219590924024892,17.44933565029201C25.110261268520443,14.912474083830416,26.99798321224139,12.592355567931799,26.467634620986544,9.956508333794776C25.81561787193934,6.715966974910987,24.343803729995223,2.6359433464061746,21.105569556326124,1.9725629305390253C17.803971716896474,1.2962019170100718,15.837938755137175,5.736278939847008,12.779746208537771,7.152425423044388C10.18005406283455,8.356255735699884,6.298617461274902,7.092405374513091,4.789858660236755,9.527821879833931C3.283822632283199,11.958843324455941,5.069043529038384,15.109664801325724,6.23154108173348,17.72244286723261C7.130620957784664,19.743175017763807,9.263518750401635,20.69308826462013,10.556104823399949,22.4877816344194C12.634217240605743,25.373140416141034,12.44798513174409,31.121047563798776,16,31.285476556047797" fill="#7ed0ec" strokewidth="0"/>
</g>
<g id="SVGRepo_tracerCarrier" stroke-linecap="round" stroke-linejoin="round" stroke="#CCCCCC" stroke-width="1.248">
<path d="M4.192 3.143h15.615l-1.42 16.034-6.404 1.812-6.369-1.813L4.192 3.143zM16.9 6.424l-9.8-.002.158 1.949 7.529.002-.189 2.02H9.66l.179 1.913h4.597l-.272 2.62-2.164.598-2.197-.603-.141-1.569h-1.94l.216 2.867L12 17.484l3.995-1.137.905-9.923z"/>
</g>
<g id="SVGRepo_iconCarrier">
<path d="M4.192 3.143h15.615l-1.42 16.034-6.404 1.812-6.369-1.813L4.192 3.143zM16.9 6.424l-9.8-.002.158 1.949 7.529.002-.189 2.02H9.66l.179 1.913h4.597l-.272 2.62-2.164.598-2.197-.603-.141-1.569h-1.94l.216 2.867L12 17.484l3.995-1.137.905-9.923z"/>
</g>
</svg>